<svg width="25" height="25" viewBox="0 0 25 25" fill="none" xmlns="http://www.w3.org/2000/svg">
<path d="M10.2852 3.58973C12.0091 3.58973 13.6624 4.27455 14.8814 5.49354C16.1003 6.71252 16.7852 8.36582 16.7852 10.0897C16.7852 11.6997 16.1952 13.1797 15.2252 14.3197L15.4952 14.5897H16.2852L21.2852 19.5897L19.7852 21.0897L14.7852 16.0897V15.2997L14.5152 15.0297C13.3752 15.9997 11.8952 16.5897 10.2852 16.5897C8.56125 16.5897 6.90795 15.9049 5.68896 14.6859C4.46998 13.4669 3.78516 11.8136 3.78516 10.0897C3.78516 8.36582 4.46998 6.71252 5.68896 5.49354C6.90795 4.27455 8.56125 3.58973 10.2852 3.58973ZM10.2852 5.58973C7.78516 5.58973 5.78516 7.58973 5.78516 10.0897C5.78516 12.5897 7.78516 14.5897 10.2852 14.5897C12.7852 14.5897 14.7852 12.5897 14.7852 10.0897C14.7852 7.58973 12.7852 5.58973 10.2852 5.58973Z" fill="#d1d5db"/>
</svg>
